<svg width="14" height="14" viewBox="0 0 14 14" fill="none" xmlns="http://www.w3.org/2000/svg">
<g clip-path="url(#clip0_5_564)">
<path d="M9.33341 3.5C9.48812 3.5 9.6365 3.56145 9.74589 3.67085C9.85529 3.78025 9.91675 3.92862 9.91675 4.08333C9.91675 4.23804 9.85529 4.38641 9.74589 4.49581C9.6365 4.6052 9.48812 4.66666 9.33341 4.66666H4.66675C4.51204 4.66666 4.36367 4.6052 4.25427 4.49581C4.14487 4.38641 4.08341 4.23804 4.08341 4.08333C4.08341 3.92862 4.14487 3.78025 4.25427 3.67085C4.36367 3.56145 4.51204 3.5 4.66675 3.5H9.33341ZM13.8292 13.8291C13.7198 13.9384 13.5714 13.9999 13.4167 13.9999C13.2621 13.9999 13.1137 13.9384 13.0043 13.8291L11.6002 12.425C11.1844 12.6904 10.7017 12.832 10.2084 12.8333C9.68924 12.8333 9.18172 12.6794 8.75004 12.3909C8.31836 12.1025 7.98191 11.6925 7.78323 11.2129C7.58455 10.7332 7.53257 10.2054 7.63385 9.69622C7.73514 9.18702 7.98515 8.71929 8.35226 8.35217C8.71937 7.98506 9.1871 7.73505 9.6963 7.63377C10.2055 7.53248 10.7333 7.58447 11.213 7.78315C11.6926 7.98183 12.1026 8.31828 12.391 8.74996C12.6795 9.18164 12.8334 9.68915 12.8334 10.2083C12.8321 10.7016 12.6905 11.1843 12.4251 11.6002L13.8292 13.0042C13.9385 13.1136 14 13.262 14 13.4167C14 13.5713 13.9385 13.7197 13.8292 13.8291ZM10.2084 11.6667C10.4968 11.6667 10.7788 11.5811 11.0186 11.4209C11.2584 11.2606 11.4454 11.0329 11.5557 10.7664C11.6661 10.4999 11.695 10.2067 11.6387 9.92382C11.5825 9.64093 11.4436 9.38108 11.2396 9.17713C11.0357 8.97318 10.7758 8.83429 10.4929 8.77802C10.21 8.72175 9.91681 8.75063 9.65033 8.861C9.38386 8.97138 9.1561 9.1583 8.99585 9.39812C8.83561 9.63794 8.75008 9.9199 8.75008 10.2083C8.75008 10.5951 8.90373 10.966 9.17722 11.2395C9.45071 11.513 9.82164 11.6667 10.2084 11.6667ZM7.58341 12.8333H4.08341C3.61929 12.8333 3.17417 12.649 2.84598 12.3208C2.51779 11.9926 2.33341 11.5475 2.33341 11.0833V2.91666C2.33341 2.45253 2.51779 2.00741 2.84598 1.67923C3.17417 1.35104 3.61929 1.16666 4.08341 1.16666H11.0834C11.2381 1.16666 11.3865 1.22812 11.4959 1.33752C11.6053 1.44691 11.6667 1.59529 11.6667 1.75V6.41666C11.6667 6.57137 11.7282 6.71975 11.8376 6.82914C11.947 6.93854 12.0954 7 12.2501 7C12.4048 7 12.5532 6.93854 12.6626 6.82914C12.772 6.71975 12.8334 6.57137 12.8334 6.41666V1.75C12.8334 1.28587 12.649 0.840748 12.3209 0.512559C11.9927 0.184371 11.5475 -3.8147e-06 11.0834 -3.8147e-06L4.08341 -3.8147e-06C3.31015 0.000922436 2.56882 0.308511 2.02204 0.855291C1.47526 1.40207 1.16767 2.1434 1.16675 2.91666V11.0833C1.16767 11.8566 1.47526 12.5979 2.02204 13.1447C2.56882 13.6915 3.31015 13.9991 4.08341 14H7.58341C7.73812 14 7.8865 13.9385 7.99589 13.8291C8.10529 13.7197 8.16675 13.5714 8.16675 13.4167C8.16675 13.262 8.10529 13.1136 7.99589 13.0042C7.8865 12.8948 7.73812 12.8333 7.58341 12.8333Z" fill="#0F0F0F"/>
</g>
<defs>
<clipPath id="clip0_5_564">
<rect width="14" height="14" fill="white"/>
</clipPath>
</defs>
</svg>
