<svg width="25" height="24" viewBox="0 0 25 24" fill="none" xmlns="http://www.w3.org/2000/svg">
<g clip-path="url(#clip0_5_2)">
<path d="M1.5 6H23.5C23.7652 6 24.0196 5.89464 24.2071 5.7071C24.3946 5.51957 24.5 5.26521 24.5 5C24.5 4.73478 24.3946 4.48043 24.2071 4.29289C24.0196 4.10536 23.7652 4 23.5 4H1.5C1.23478 4 0.98043 4.10536 0.792893 4.29289C0.605357 4.48043 0.5 4.73478 0.5 5C0.5 5.26521 0.605357 5.51957 0.792893 5.7071C0.98043 5.89464 1.23478 6 1.5 6Z" fill="#374957"/>
<path d="M23.5002 9H9.50015C9.23494 9 8.98058 9.10536 8.79305 9.29289C8.60551 9.48043 8.50015 9.73478 8.50015 10C8.50015 10.2652 8.60551 10.5196 8.79305 10.7071C8.98058 10.8946 9.23494 11 9.50015 11H23.5002C23.7654 11 24.0197 10.8946 24.2073 10.7071C24.3948 10.5196 24.5002 10.2652 24.5002 10C24.5002 9.73478 24.3948 9.48043 24.2073 9.29289C24.0197 9.10536 23.7654 9 23.5002 9Z" fill="#374957"/>
<path d="M23.5002 19H9.50015C9.23494 19 8.98058 19.1053 8.79305 19.2929C8.60551 19.4804 8.50015 19.7348 8.50015 20C8.50015 20.2652 8.60551 20.5195 8.79305 20.7071C8.98058 20.8946 9.23494 21 9.50015 21H23.5002C23.7654 21 24.0197 20.8946 24.2073 20.7071C24.3948 20.5195 24.5002 20.2652 24.5002 20C24.5002 19.7348 24.3948 19.4804 24.2073 19.2929C24.0197 19.1053 23.7654 19 23.5002 19Z" fill="#374957"/>
<path d="M23.5 14H1.5C1.23478 14 0.98043 14.1054 0.792893 14.2929C0.605357 14.4805 0.5 14.7348 0.5 15C0.5 15.2653 0.605357 15.5196 0.792893 15.7071C0.98043 15.8947 1.23478 16 1.5 16H23.5C23.7652 16 24.0196 15.8947 24.2071 15.7071C24.3946 15.5196 24.5 15.2653 24.5 15C24.5 14.7348 24.3946 14.4805 24.2071 14.2929C24.0196 14.1054 23.7652 14 23.5 14Z" fill="#374957"/>
</g>
<defs>
<clipPath id="clip0_5_2">
<rect width="24" height="24" fill="white" transform="translate(0.5)"/>
</clipPath>
</defs>
</svg>
